<?xml version="1.0" encoding="UTF-8"?>
<svg width="100" height="100" version="1.1" viewBox="0 0 100 100" xmlns="http://www.w3.org/2000/svg">
 <g transform="translate(0 -270.54)">
  <path d="m6.3625 363.85c-0.72238-0.37737-1.0727-0.70664-1.3899-1.3065l-0.42407-0.80192v-9.653c0-9.112 0.01939-9.6909 0.34565-10.33 0.42694-0.83651 0.8416-1.2207 1.7087-1.583 0.59426-0.2483 3.7436-0.28077 27.235-0.28077h26.563l0.09482 17.432h14.055l0.0948-17.432h9.0396c7.7219 0 9.1376 0.0409 9.7116 0.28077 0.8671 0.36229 1.2818 0.74644 1.7087 1.583 0.32628 0.63928 0.34565 1.2182 0.34565 10.33v9.653l-0.42406 0.80192c-0.31719 0.59982-0.66748 0.92909-1.3899 1.3065l-0.96579 0.50454h-85.343zm27.142-8.5807c0.66872-0.54168 0.79714-1.0444 0.79714-3.1208 0-2.3322-0.13817-2.8115-0.95376-3.3088-0.57621-0.35131-0.92402-0.36447-9.6333-0.36447s-9.0571 0.0132-9.6333 0.36447c-0.32878 0.20046-0.67788 0.57514-0.77578 0.83262-0.24526 0.6451-0.22539 4.3915 0.02594 4.8829 0.54771 1.071 0.12894 1.0295 10.383 1.0295 8.6349 0 9.4323-0.0257 9.7899-0.31538zm-26.739-22.689c-0.80731-0.32335-1.4948-0.93013-1.856-1.6382-0.34614-0.67849-0.36094-1.1047-0.36094-10.396 0-9.3603 0.01253-9.7134 0.36868-10.412 0.20277-0.39747 0.71015-0.94865 1.1275-1.2248l0.75884-0.50218h86.393l0.75884 0.50218c0.41736 0.27619 0.92474 0.82737 1.1275 1.2248 0.35617 0.69816 0.36867 1.0513 0.36867 10.412s-0.0125 9.7134-0.36867 10.412c-0.20278 0.39747-0.70988 0.94865-1.1269 1.2248l-0.75821 0.50217-8.0378 0.1116-17.636-17.634-17.616 17.613-21.356-0.0116c-12.925-7e-3 -21.526-0.0795-21.786-0.18373zm26.634-8.7544c0.69146-0.37006 0.90257-1.1373 0.90257-3.2802s-0.21111-2.9102-0.90257-3.2802c-0.48255-0.25825-18.886-0.25825-19.369 0-0.69145 0.37006-0.90256 1.1373-0.90256 3.2802 0 2.1109 0.20534 2.8856 0.86704 3.271 0.44113 0.25693 18.925 0.2657 19.405 9e-3zm-26.837-22.918c-0.83426-0.36186-1.2481-0.75264-1.6677-1.5747-0.32628-0.63929-0.34565-1.2182-0.34565-10.33v-9.653l0.42407-0.80192c0.31719-0.59982 0.66748-0.92908 1.3899-1.3065l0.9658-0.50454h85.343l0.96579 0.50454c0.72239 0.37738 1.0727 0.70664 1.3899 1.3065l0.42406 0.80192v9.653c0 9.112-0.0194 9.6909-0.34565 10.33-0.42693 0.83651-0.84159 1.2207-1.7087 1.583-0.59839 0.25002-5.3546 0.27997-43.437 0.27361-37.666-6e-3 -42.84-0.0399-43.398-0.28189zm26.786-8.656c0.32878-0.20045 0.67788-0.57513 0.77578-0.83261 0.24526-0.6451 0.22539-4.3915-0.02594-4.8829-0.5477-1.071-0.12894-1.0295-10.383-1.0295s-9.8355-0.0415-10.383 1.0295c-0.2513 0.49139-0.27118 4.2378-0.02594 4.8829 0.09789 0.25748 0.447 0.63216 0.77578 0.83261 0.57621 0.35132 0.92402 0.36448 9.6333 0.36448s9.0571-0.0132 9.6333-0.36448z" fill="#d33f49" stroke-width=".18254"/>
 </g>
</svg>
