<?xml version="1.0" encoding="UTF-8"?>
<!-- Created with Inkscape (http://www.inkscape.org/) -->
<svg width="64" height="64" version="1.1" viewBox="0 0 16.933 16.933" xmlns="http://www.w3.org/2000/svg" xmlns:cc="http://creativecommons.org/ns#" xmlns:dc="http://purl.org/dc/elements/1.1/" xmlns:rdf="http://www.w3.org/1999/02/22-rdf-syntax-ns#">
 <metadata>
  <rdf:RDF>
   <cc:Work rdf:about="">
    <dc:format>image/svg+xml</dc:format>
    <dc:type rdf:resource="http://purl.org/dc/dcmitype/StillImage"/>
    <dc:title/>
   </cc:Work>
  </rdf:RDF>
 </metadata>
 <g transform="translate(0 -280.07)" fill="#fff">
  <g transform="matrix(1.1012 0 0 1.1012 -4.353 159.89)">
   <circle cx="6.6146" cy="113.11" r="1.3229"/>
   <path d="m10.205 112.17h6.8414c0.5235 0 0.94494 0.42144 0.94494 0.94494 0 0.52349-0.42144 0.94494-0.94494 0.94494h-6.8414c-0.5235 0-0.94494-0.42145-0.94494-0.94494 0-0.5235 0.42144-0.94494 0.94494-0.94494z"/>
   <circle cx="6.6146" cy="116.82" r="1.3229"/>
   <path d="m10.205 115.87h6.8414c0.5235 0 0.94494 0.42144 0.94494 0.94494 0 0.52349-0.42144 0.94494-0.94494 0.94494h-6.8414c-0.5235 0-0.94494-0.42145-0.94494-0.94494 0-0.5235 0.42144-0.94494 0.94494-0.94494z"/>
   <circle cx="6.6146" cy="120.52" r="1.3229"/>
   <path d="m10.205 119.58h6.8414c0.5235 0 0.94494 0.42144 0.94494 0.94494 0 0.52349-0.42144 0.94494-0.94494 0.94494h-6.8414c-0.5235 0-0.94494-0.42145-0.94494-0.94494 0-0.5235 0.42144-0.94494 0.94494-0.94494z"/>
  </g>
  <g transform="matrix(1.1012 0 0 1.1012 -4.353 159.89)">
   <circle cx="6.6146" cy="113.11" r="1.3229"/>
   <path d="m10.205 112.17h6.8414c0.5235 0 0.94494 0.42144 0.94494 0.94494 0 0.52349-0.42144 0.94494-0.94494 0.94494h-6.8414c-0.5235 0-0.94494-0.42145-0.94494-0.94494 0-0.5235 0.42144-0.94494 0.94494-0.94494z"/>
   <circle cx="6.6146" cy="116.82" r="1.3229"/>
   <path d="m10.205 115.87h6.8414c0.5235 0 0.94494 0.42144 0.94494 0.94494 0 0.52349-0.42144 0.94494-0.94494 0.94494h-6.8414c-0.5235 0-0.94494-0.42145-0.94494-0.94494 0-0.5235 0.42144-0.94494 0.94494-0.94494z"/>
   <circle cx="6.6146" cy="120.52" r="1.3229"/>
   <path d="m10.205 119.58h6.8414c0.5235 0 0.94494 0.42144 0.94494 0.94494 0 0.52349-0.42144 0.94494-0.94494 0.94494h-6.8414c-0.5235 0-0.94494-0.42145-0.94494-0.94494 0-0.5235 0.42144-0.94494 0.94494-0.94494z"/>
  </g>
 </g>
</svg>
